# File created by Blade
# Date/Time:  Wed Apr 08 17:17:01 2015
# Frame Rate: 120.000 fps
#------------------------------------------------------
:FULLY-SPECIFIED
:DEGREES
1507
root 5.354156 36.867124 3.955708 144.916577 -72.516732 -148.632560
Spine 13.140309 -0.778256 3.407646
Head 14.219882 2.407396 14.355043
LeftShoulder -7.967444 15.631260 18.538550
LeftArm 17.346315 5.692054 -70.004449
LeftForeArm 24.027888 -0.000000 28.074863
LeftHand -11.886274 0.000000 -16.810808
LeftHandThumb1 -26.253704 0.000000 33.147579
RightShoulder -32.671736 -45.855422 18.125083
RightArm 55.443515 -6.200077 58.389957
RightForeArm 5.417432 0.000000 16.952028
RightHand -2.124502 -0.000000 14.389292
RightHandThumb1 -24.326973 -0.000000 -32.862282
LeftUpLeg 10.613770 17.993389 7.424000
LeftLeg 7.117602 -0.000000 -0.000000
LeftFoot -13.142660 3.399314 -10.744234
LeftToeBase 7.336428 -0.000000 -0.000000
RightUpLeg -39.700472 -4.787264 -7.917727
RightLeg 102.952027 -0.000000 -0.000000
RightFoot -8.324673 1.380344 18.393597
RightToeBase -4.776491 -0.000000 0.000000
1508
root 5.324231 36.866739 3.890534 143.978288 -72.997681 -147.878491
Spine 13.137331 -0.622837 3.268202
Head 14.345934 2.473527 14.400259
LeftShoulder -8.010179 15.660457 18.632618
LeftArm 17.338440 5.084892 -69.422704
LeftForeArm 23.977850 -0.000000 28.086769
LeftHand -11.897574 -0.000000 -16.805877
LeftHandThumb1 -26.253704 0.000000 33.147579
RightShoulder -32.648019 -45.807972 17.946293
RightArm 55.359254 -5.646039 58.445272
RightForeArm 5.420769 -0.000000 16.862787
RightHand -2.285619 -0.000000 14.243822
RightHandThumb1 -24.326973 -0.000000 -32.862282
LeftUpLeg 10.832158 17.618672 7.476160
LeftLeg 7.015602 -0.000000 -0.000000
LeftFoot -13.082099 3.442410 -10.678268
LeftToeBase 7.289956 -0.000000 -0.000000
RightUpLeg -38.546008 -4.617021 -8.221951
RightLeg 100.806469 -0.000000 -0.000000
RightFoot -8.728403 1.321368 18.468268
RightToeBase -5.018111 -0.000000 0.000000
1509
root 5.292137 36.865708 3.822230 142.958320 -73.441894 -147.062075
Spine 13.162659 -0.453500 3.150192
Head 14.452020 2.542914 14.447473
LeftShoulder -8.066466 15.646067 18.726346
LeftArm 17.290905 4.400888 -68.858764
LeftForeArm 24.080820 -0.000000 28.113171
LeftHand -11.846795 -0.000000 -16.902569
LeftHandThumb1 -26.253704 0.000000 33.147579
RightShoulder -32.656719 -45.797222 17.808455
RightArm 55.312796 -5.109434 58.363917
RightForeArm 5.625058 -0.000000 16.778750
RightHand -2.251362 -0.000000 13.899435
RightHandThumb1 -24.326973 -0.000000 -32.862282
LeftUpLeg 11.088393 17.221932 7.562903
LeftLeg 6.905368 -0.000000 -0.000000
LeftFoot -13.040927 3.477126 -10.664014
LeftToeBase 7.302868 -0.000000 -0.000000
RightUpLeg -37.308942 -4.345718 -8.485980
RightLeg 98.578819 -0.000000 -0.000000
RightFoot -8.964960 1.524708 18.313535
RightToeBase -5.069613 -0.000000 0.000000
1510
root 5.251568 36.863655 3.743900 141.955573 -73.838370 -146.255041
Spine 13.133238 -0.231306 3.026529
Head 14.608126 2.641640 14.533099
LeftShoulder -8.158238 15.760580 18.811133
LeftArm 17.376500 3.837190 -68.185909
LeftForeArm 24.086621 0.000000 28.159327
LeftHand -11.940714 -0.000000 -16.917786
LeftHandThumb1 -26.253704 0.000000 33.147579
RightShoulder -32.693363 -45.783869 17.713015
RightArm 55.214283 -4.516516 58.309563
RightForeArm 5.591891 -0.000000 16.733068
RightHand -2.332631 -0.000000 13.761540
RightHandThumb1 -24.326973 -0.000000 -32.862282
LeftUpLeg 11.368621 17.012488 7.732675
LeftLeg 6.810789 -0.000000 -0.000000
LeftFoot -13.035832 3.299362 -10.781535
LeftToeBase 7.425527 -0.000000 -0.000000
RightUpLeg -36.009342 -3.999457 -8.688577
RightLeg 96.272934 -0.000000 -0.000000
RightFoot -9.180091 1.906410 18.221298
RightToeBase -5.073232 -0.000000 0.000000
1511
root 5.225829 36.858237 3.689309 141.234033 -74.322896 -145.674765
Spine 13.097813 -0.052026 2.839055
Head 14.680296 2.764008 14.533236
LeftShoulder -8.187937 15.743330 18.880940
LeftArm 17.308523 3.219207 -67.547386
LeftForeArm 24.240239 -0.000000 28.240299
LeftHand -11.928155 -0.000000 -16.920710
LeftHandThumb1 -26.253704 0.000000 33.147579
RightShoulder -32.566432 -45.717613 17.390337
RightArm 55.058820 -3.619346 58.888747
RightForeArm 5.073892 -0.000000 16.556095
RightHand -2.349180 -0.000000 13.827045
RightHandThumb1 -24.326973 -0.000000 -32.862282
LeftUpLeg 11.491621 16.765826 7.706578
LeftLeg 6.790820 -0.000000 -0.000000
LeftFoot -13.016501 3.216308 -10.808757
LeftToeBase 7.544586 -0.000000 -0.000000
RightUpLeg -34.764294 -3.693125 -9.035883
RightLeg 93.896410 -0.000000 -0.000000
RightFoot -9.257544 2.523902 18.225525
RightToeBase -5.180493 -0.000000 0.000000
1512
root 5.192918 36.851437 3.627601 140.564646 -74.746645 -145.114961
Spine 12.986498 0.187371 2.674275
Head 14.786298 2.894955 14.538949
LeftShoulder -8.210518 15.775400 18.950691
LeftArm 17.256414 2.552458 -66.912117
LeftForeArm 24.300197 -0.000000 28.312483
LeftHand -11.987050 -0.000000 -16.784529
LeftHandThumb1 -26.253704 0.000000 33.147579
RightShoulder -32.496738 -45.674238 17.146342
RightArm 54.897221 -2.632802 59.520143
RightForeArm 4.516604 -0.000000 16.412470
RightHand -2.335484 -0.000000 13.935641
RightHandThumb1 -24.326973 -0.000000 -32.862282
LeftUpLeg 11.617541 16.664699 7.744034
LeftLeg 6.772801 -0.000000 -0.000000
LeftFoot -12.977174 3.003107 -10.787863
LeftToeBase 7.514445 -0.000000 -0.000000
RightUpLeg -33.486933 -3.289425 -9.327216
RightLeg 91.434181 -0.000000 -0.000000
RightFoot -9.214272 3.281298 18.636497
RightToeBase -5.585742 -0.000000 0.000000
1513
root 5.157433 36.843208 3.563485 139.986571 -75.157096 -144.679935
Spine 12.918923 0.459499 2.460727
Head 14.851453 3.010312 14.584440
LeftShoulder -8.236037 15.778082 19.079205
LeftArm 17.190889 1.970631 -66.269913
LeftForeArm 24.221577 -0.000000 28.372336
LeftHand -12.075238 -0.000000 -16.541039
LeftHandThumb1 -26.253704 0.000000 33.147579
RightShoulder -32.505953 -45.633929 16.999175
RightArm 54.769609 -1.815431 59.798039
RightForeArm 4.407325 -0.000000 16.392032
RightHand -2.475939 -0.000000 13.393877
RightHandThumb1 -24.326973 -0.000000 -32.862282
LeftUpLeg 11.784192 16.571060 7.771754
LeftLeg 6.762427 -0.000000 -0.000000
LeftFoot -12.949534 2.799371 -10.817456
LeftToeBase 7.510377 -0.000000 -0.000000
RightUpLeg -32.129349 -2.854154 -9.623480
RightLeg 88.902821 -0.000000 -0.000000
RightFoot -9.051126 4.116195 19.160016
RightToeBase -6.485657 -0.000000 0.000000
1514
root 5.121983 36.834203 3.503704 139.176438 -75.608345 -144.068879
Spine 12.941974 0.620225 2.280763
Head 14.896553 3.201102 14.537604
LeftShoulder -8.288927 15.795851 19.145101
LeftArm 17.144483 1.351112 -65.594613
LeftForeArm 24.207076 0.000000 28.439814
LeftHand -12.023792 -0.000000 -16.506984
LeftHandThumb1 -26.253704 0.000000 33.147579
RightShoulder -32.438757 -45.591279 16.694886
RightArm 54.678945 -1.045563 60.054094
RightForeArm 4.141673 -0.000000 16.268945
RightHand -2.300309 -0.000000 13.193244
RightHandThumb1 -24.326973 -0.000000 -32.862282
LeftUpLeg 11.960458 16.439130 7.809125
LeftLeg 6.824434 -0.000000 -0.000000
LeftFoot -12.902893 2.567216 -10.890120
LeftToeBase 7.317790 -0.000000 -0.000000
RightUpLeg -30.653375 -2.466585 -9.914476
RightLeg 86.290695 -0.000000 -0.000000
RightFoot -8.757759 4.831202 19.892911
RightToeBase -7.499785 -0.000000 0.000000
1515
root 5.083372 36.823085 3.442554 138.545132 -76.096359 -143.555990
Spine 12.845389 0.771126 2.026379
Head 14.953018 3.401750 14.541915
LeftShoulder -8.383073 15.856437 19.210948
LeftArm 17.152672 0.742519 -64.877054
LeftForeArm 24.153018 -0.000000 28.485632
LeftHand -11.933778 0.000000 -16.638812
LeftHandThumb1 -26.253704 0.000000 33.147579
RightShoulder -32.352667 -45.534722 16.355424
RightArm 54.556162 -0.246197 60.373767
RightForeArm 4.059817 -0.000000 16.140757
RightHand -2.375284 -0.000000 13.235564
RightHandThumb1 -24.326973 -0.000000 -32.862282
LeftUpLeg 12.054652 16.298886 7.771187
LeftLeg 6.875765 -0.000000 -0.000000
LeftFoot -12.888869 2.357335 -10.947057
LeftToeBase 7.301624 -0.000000 -0.000000
RightUpLeg -29.209896 -2.146639 -10.206056
RightLeg 83.666755 -0.000000 -0.000000
RightFoot -8.746118 5.217915 20.223092
RightToeBase -7.710642 -0.000000 0.000000
1516
root 5.046333 36.808911 3.385660 137.972088 -76.621278 -143.092249
Spine 12.738594 0.890948 1.744241
Head 15.012435 3.599483 14.497248
LeftShoulder -8.445958 15.872522 19.277864
LeftArm 17.089809 0.095032 -64.169658
LeftForeArm 24.197253 -0.000000 28.545331
LeftHand -11.735530 -0.000000 -16.986469
LeftHandThumb1 -26.253704 0.000000 33.147579
RightShoulder -32.238643 -45.466741 15.960508
RightArm 54.408965 0.503419 60.637417
RightForeArm 4.055701 -0.000000 16.046698
RightHand -2.427231 -0.000000 13.181293
RightHandThumb1 -24.326973 -0.000000 -32.862282
LeftUpLeg 12.125783 16.110470 7.668377
LeftLeg 6.926132 -0.000000 -0.000000
LeftFoot -12.893152 2.198168 -10.938622
LeftToeBase 7.338791 -0.000000 -0.000000
RightUpLeg -27.751886 -1.861827 -10.534020
RightLeg 81.026981 -0.000000 -0.000000
RightFoot -8.886055 5.471388 20.357915
RightToeBase -7.368758 -0.000000 0.000000
1517
root 5.006940 36.795583 3.327834 137.250267 -77.120742 -142.505582
Spine 12.662764 1.016572 1.509950
Head 15.078340 3.787265 14.421250
LeftShoulder -8.521056 15.874026 19.342608
LeftArm 17.068228 -0.553788 -63.474568
LeftForeArm 24.116012 -0.000000 28.545568
LeftHand -11.654376 -0.000000 -16.801397
LeftHandThumb1 -26.253704 0.000000 33.147579
RightShoulder -32.139418 -45.420097 15.593638
RightArm 54.263997 1.273430 60.828712
RightForeArm 4.144468 -0.000000 16.002876
RightHand -2.517704 -0.000000 12.728762
RightHandThumb1 -24.326973 -0.000000 -32.862282
LeftUpLeg 12.236232 15.920402 7.612787
LeftLeg 6.977565 -0.000000 -0.000000
LeftFoot -12.878374 2.005397 -10.982639
LeftToeBase 7.240989 -0.000000 -0.000000
RightUpLeg -26.213818 -1.559377 -10.794763
RightLeg 78.309950 -0.000000 -0.000000
RightFoot -9.169548 5.583240 20.357819
RightToeBase -6.780827 -0.000000 0.000000
